<svg width="1080" height="1920" viewBox="0 0 1080 1920" fill="none" xmlns="http://www.w3.org/2000/svg">
<rect width="1080" height="1920" fill="#C5947B"/>
<path d="M368 675.355C403.233 598.632 488.933 513.359 488.933 513.359C514.643 474.21 562.278 586.759 520.714 617.756C479.15 648.753 495.441 699.649 562.278 712.704C629.115 725.759 674.618 685.259 660.61 626.759M598.5 595.5C568.029 558 562.278 479.16 534.204 464.76C527.975 491.759 534.204 524.259 534.204 524.259C534.204 524.259 562.264 500.759 587.013 524.259C611.761 547.759 587.365 483.538 587.013 473.759C585.965 444.608 649.384 456.259 670.333 473.759C691.282 491.259 657.644 518.628 660.61 535.759C663.576 552.89 738.894 589.259 756.51 589.259C774.126 589.259 806.731 682.404 759.843 719.759C730.327 698.624 711.967 681.589 675.393 640.259C675.393 640.259 675.393 704.979 675.393 713.379C675.393 740.603 691.846 799.051 691.846 799.051L701.959 835.551C701.959 858.051 643.866 951.779 621.617 964.923C576.056 991.836 575.125 1030.86 575.125 1079.67C575.125 1125.03 602.17 1153.24 611.761 1195.54C620.377 1233.54 632.609 1240.05 661.681 1222.09C683.356 1208.7 695.516 1183.79 704.316 1159.77C707.855 1150.1 768.161 998.759 768.161 998.759C744.881 992.647 656.11 1050.12 656.11 1072.24C656.11 1099.14 697.589 1048.72 701.959 1037.82C710.201 1017.27 720.573 1000.16 732.382 982.247C746.338 961.078 748.665 862.936 748.665 835.551C748.665 817.596 724.713 713.308 748.665 752.5C756.424 765.196 802.054 882.986 805.351 897.874C809.431 936.435 793.151 1066.77 788.086 1104C784.555 1129.96 788.086 1208.98 788.086 1235.5C788.086 1261.59 768.161 1317.26 768.161 1317.26C766.294 1326.09 748.74 1348.85 748.665 1346.74L732.382 1260C706.948 1280.03 698.119 1344.97 673.25 1361.59C653.704 1374.65 616.006 1408.82 596.5 1423M617.421 1511C617.421 1511 609.7 1510.7 611.761 1502.5C619.182 1473 602.903 1405.11 572.19 1360" stroke="black" stroke-width="2" stroke-linecap="round" stroke-linejoin="round"/>
<path d="M367.566 675.759C512.066 862.759 498.066 964.478 498.066 964.478V1004V1022.76V1061.5C498.066 1061.5 460.592 1112.08 447.127 1133.03C435.548 1141.39 394.37 1201.72 388.477 1215.68C369.872 1259.75 364 1343 364 1343L381.799 1391.63L392.808 1426.1C392.808 1426.1 407.467 1462.98 418.794 1479.16C432.171 1498.27 430.515 1498.36 447.127 1514.5" stroke="black" stroke-width="2" stroke-linecap="round" stroke-linejoin="round"/>
<path d="M617.5 1511C729 1511 689 1380 745.5 1349" stroke="black" stroke-width="2" stroke-linecap="round" stroke-linejoin="round"/>
<path d="M753 592.5C753 592.5 760.466 591.938 763.86 587.654C767.253 583.369 769.574 601.491 761.5 598.5" stroke="black" stroke-width="2" stroke-linecap="round" stroke-linejoin="round"/>
<path d="M597.5 594C600.529 597.449 602.854 603.577 606.796 606.04C607.96 606.768 607.771 608.541 609.245 608.584C617.703 608.825 610.4 604.28 611.458 600.577L612.797 598.906C614.445 595.716 625.56 602.816 624.974 608.584C624.388 614.351 614.331 612.869 614.331 612.869L619.417 619.907C619.417 619.907 606.796 625.406 601.797 615.691C596.798 605.976 614.331 584 614.331 584L617 582C617 582 656 600.5 660.5 626.5" stroke="black" stroke-width="2" stroke-linecap="round" stroke-linejoin="round"/>
<path d="M754 592C754.591 594.089 756.91 592.605 756.91 594.05M756.91 594.05C755.508 590.805 755.707 593.893 756.91 594.05ZM756.91 594.05C759.46 594.384 761.845 598.015 764 599" stroke="black" stroke-width="2" stroke-linecap="round" stroke-linejoin="round"/>
<path d="M596 1423C596 1407.5 589.999 1408 587 1396C584.001 1384 567.899 1375.69 572.001 1360" stroke="black" stroke-width="2" stroke-linecap="round" stroke-linejoin="round"/>
</svg>
