<svg width="826" height="1349" viewBox="0 0 826 1349" fill="none" xmlns="http://www.w3.org/2000/svg">
<rect width="826" height="1349" fill="#C5947B"/>
<path d="M277.066 494.355C314.066 417.632 404.066 332.359 404.066 332.359C431.066 293.21 481.091 405.759 437.442 436.756C393.793 467.753 410.9 518.649 481.091 531.704C551.281 544.759 599.066 504.259 584.355 445.759M522.066 415.759C490.066 378.259 481.091 298.16 451.608 283.76C445.066 310.759 451.608 343.259 451.608 343.259C451.608 343.259 481.076 319.759 507.066 343.259C533.056 366.759 507.436 302.538 507.066 292.759C505.965 263.608 572.566 275.259 594.566 292.759C616.566 310.259 581.24 337.628 584.355 354.759C587.47 371.89 666.566 408.259 685.066 408.259C703.566 408.259 737.806 501.404 688.566 538.759C657.57 517.624 638.289 500.589 599.88 459.259C599.88 459.259 599.88 523.979 599.88 532.379C599.88 559.603 617.159 618.051 617.159 618.051L627.779 654.551C627.779 677.051 566.772 770.779 543.406 783.923C495.559 810.836 494.582 849.86 494.582 898.67C494.582 944.029 522.983 972.235 533.056 1014.54C542.104 1052.54 554.95 1059.05 585.48 1041.09C608.243 1027.7 621.013 1002.79 630.254 978.768C633.971 969.104 697.302 817.759 697.302 817.759C672.854 811.647 579.63 869.121 579.63 891.245C579.63 918.144 623.189 867.722 627.779 856.821C636.434 836.266 647.326 819.161 659.728 801.247C674.384 780.078 676.828 681.936 676.828 654.551C676.828 636.596 651.675 532.308 676.828 571.5C684.976 584.196 732.895 701.986 736.357 716.874C740.642 755.435 723.545 885.772 718.227 923C714.518 948.96 718.227 1027.98 718.227 1054.5C718.227 1080.59 697.302 1136.26 697.302 1136.26M697.302 1136.26C692.035 1151.01 700.698 1120.98 697.302 1136.26ZM697.302 1136.26C695.342 1145.09 676.906 1167.85 676.828 1165.74L659.728 1079C633.019 1099.03 623.746 1163.97 597.63 1180.59C577.103 1193.65 533.484 1230.82 513 1245M539 1330C539 1330 523.098 1334.2 525.263 1326C533.056 1296.5 523.754 1224.11 491.5 1179" stroke="black" stroke-linecap="round" stroke-linejoin="round"/>
<path d="M277.066 494.355C314.066 417.632 404.066 332.359 404.066 332.359C431.066 293.21 481.091 405.759 437.442 436.756C393.793 467.753 410.9 518.649 481.091 531.704C551.281 544.759 599.066 504.259 584.355 445.759M522.066 415.759C490.066 378.259 481.091 298.16 451.608 283.76C445.066 310.759 451.608 343.259 451.608 343.259C451.608 343.259 481.076 319.759 507.066 343.259C533.056 366.759 507.436 302.538 507.066 292.759C505.965 263.608 572.566 275.259 594.566 292.759C616.566 310.259 581.24 337.628 584.355 354.759C587.47 371.89 666.566 408.259 685.066 408.259C703.566 408.259 737.806 501.404 688.566 538.759C657.57 517.624 638.289 500.589 599.88 459.259C599.88 459.259 599.88 523.979 599.88 532.379C599.88 559.603 617.159 618.051 617.159 618.051L627.779 654.551C627.779 677.051 566.772 770.779 543.406 783.923C495.559 810.836 494.582 849.86 494.582 898.67C494.582 944.029 522.983 972.235 533.056 1014.54C542.104 1052.54 554.95 1059.05 585.48 1041.09C608.243 1027.7 621.013 1002.79 630.254 978.768C633.971 969.104 697.302 817.759 697.302 817.759C672.854 811.647 579.63 869.121 579.63 891.245C579.63 918.144 623.189 867.722 627.779 856.821C636.434 836.266 647.326 819.161 659.728 801.247C674.384 780.078 676.828 681.936 676.828 654.551C676.828 636.596 651.675 532.308 676.828 571.5C684.976 584.196 732.895 701.986 736.357 716.874C740.642 755.435 723.545 885.772 718.227 923C714.518 948.96 718.227 1027.98 718.227 1054.5C718.227 1080.59 697.302 1136.26 697.302 1136.26M697.302 1136.26C692.035 1151.01 700.698 1120.98 697.302 1136.26ZM697.302 1136.26C695.342 1145.09 676.906 1167.85 676.828 1165.74L659.728 1079C633.019 1099.03 623.746 1163.97 597.63 1180.59C577.103 1193.65 533.484 1230.82 513 1245M539 1330C539 1330 523.098 1334.2 525.263 1326C533.056 1296.5 523.754 1224.11 491.5 1179" stroke="black" stroke-linecap="round" stroke-linejoin="round"/>
<path d="M277.066 494.759C421.566 681.759 407.566 783.478 407.566 783.478V823V841.759V880.5C407.566 880.5 370.092 931.084 356.627 952.03C345.048 960.393 303.87 1020.72 297.977 1034.68C279.372 1078.75 273.5 1162 273.5 1162L291.299 1210.63L302.308 1245.1C302.308 1245.1 316.967 1281.98 328.294 1298.16C341.671 1317.27 340.015 1317.36 356.627 1333.5" stroke="black" stroke-linecap="round" stroke-linejoin="round"/>
<path d="M277.066 494.759C421.566 681.759 407.566 783.478 407.566 783.478V823V841.759V880.5C407.566 880.5 370.092 931.084 356.627 952.03C345.048 960.393 303.87 1020.72 297.977 1034.68C279.372 1078.75 273.5 1162 273.5 1162L291.299 1210.63L302.308 1245.1C302.308 1245.1 316.967 1281.98 328.294 1298.16C341.671 1317.27 340.015 1317.36 356.627 1333.5" stroke="black" stroke-linecap="round" stroke-linejoin="round"/>
<path d="M538.5 1330C645 1308 627 1221 659 1176" stroke="black" stroke-linecap="round" stroke-linejoin="round"/>
<path d="M538.5 1330C645 1308 627 1221 659 1176" stroke="black" stroke-linecap="round" stroke-linejoin="round"/>
<path d="M688.566 410.759C688.566 410.759 696.032 410.198 699.426 405.913C702.82 401.629 704.106 419.918 696.032 416.927" stroke="black" stroke-linecap="round" stroke-linejoin="round"/>
<path d="M688.566 410.759C688.566 410.759 696.032 410.198 699.426 405.913C702.82 401.629 704.106 419.918 696.032 416.927" stroke="black" stroke-linecap="round" stroke-linejoin="round"/>
<path d="M522.066 415.759C525.095 419.208 526.92 423.836 530.862 426.3C532.027 427.028 531.837 428.801 533.311 428.843C541.769 429.084 534.467 424.539 535.525 420.837L536.863 419.166C538.512 415.976 549.627 423.076 549.041 428.843C548.455 434.61 538.397 433.128 538.397 433.128L543.484 440.166C543.484 440.166 530.862 445.666 525.863 435.95C520.864 426.235 538.397 404.259 538.397 404.259L541.066 402.259C541.066 402.259 580.066 420.759 584.566 446.759" stroke="black" stroke-linecap="round" stroke-linejoin="round"/>
<path d="M522.066 415.759C525.095 419.208 526.92 423.836 530.862 426.3C532.027 427.028 531.837 428.801 533.311 428.843C541.769 429.084 534.467 424.539 535.525 420.837L536.863 419.166C538.512 415.976 549.627 423.076 549.041 428.843C548.455 434.61 538.397 433.128 538.397 433.128L543.484 440.166C543.484 440.166 530.862 445.666 525.863 435.95C520.864 426.235 538.397 404.259 538.397 404.259L541.066 402.259C541.066 402.259 580.066 420.759 584.566 446.759" stroke="black" stroke-linecap="round" stroke-linejoin="round"/>
<path d="M686.066 408.759C686.567 411.08 691.066 411.654 691.066 413.259M691.066 413.259C689.881 409.654 690.049 413.084 691.066 413.259ZM691.066 413.259C693.225 413.63 695.242 417.665 697.066 418.759" stroke="black" stroke-linecap="round" stroke-linejoin="round"/>
<path d="M686.066 408.759C686.567 411.08 691.066 411.654 691.066 413.259M691.066 413.259C689.881 409.654 690.049 413.084 691.066 413.259ZM691.066 413.259C693.225 413.63 695.242 417.665 697.066 418.759" stroke="black" stroke-linecap="round" stroke-linejoin="round"/>
<path d="M515 1245.5C515 1230 509.5 1220 503 1211C503 1211 491 1189.45 491 1179" stroke="black" stroke-linecap="round" stroke-linejoin="round"/>
<path d="M515 1245.5C515 1230 509.5 1220 503 1211C503 1211 491 1189.45 491 1179" stroke="black" stroke-linecap="round" stroke-linejoin="round"/>
</svg>
