<svg width="907" height="682" viewBox="0 0 907 682" fill="none" xmlns="http://www.w3.org/2000/svg">
<g clip-path="url(#clip0)">
<rect width="907" height="682" fill="white"/>
<path d="M47.6023 312.661C28.1268 306.568 17.5996 298.919 0 272.631V0H230.439H652.368C652.898 57.149 649.202 88.9526 630.731 144.971C635.248 233.498 641.743 281.132 613.421 386.228C619.254 462.413 623.678 503.649 613.421 600.438C621.46 629.764 618.644 648.357 613.421 681.579H437.076H125.497C104.725 646.541 107.504 629.223 125.497 600.438C119.105 579.104 121.262 565.055 125.497 539.854C97.0594 493.498 90.6123 463.853 84.3859 408.947C59.894 376.763 53.5536 354.764 47.6023 312.661Z" fill="#D69B7B"/>
<path d="M261.813 165.526L229.357 174.181C226.251 188.328 225.944 196.946 229.357 214.21C228.592 214.94 227.84 215.656 227.099 216.361C208.305 234.256 197.096 244.929 177.427 283.45C164.038 307.965 156.413 313.272 142.807 322.398H133.07L49.5 327.5C47.2235 363.414 62.3602 379.882 89.7955 419.766C124.61 449.683 144.216 462.645 174.181 478.544C176.632 479.844 179.152 481.164 181.755 482.514C265.772 491.806 312.956 496.915 415.439 482.514C454.611 470.38 476.038 465.125 531.199 406.783L523.287 377.114L522.544 374.327C535 346.565 536.814 330.929 531.199 302.924C504.152 214.21 349.445 157.953 261.813 165.526Z" fill="black"/>
<path d="M651.287 46.5205L636.14 56.2573V110.351C631.337 187.199 591.588 242.724 567.731 276.049C559.346 287.763 552.924 296.734 550.673 302.924C571.882 366.452 594.733 367.826 639.386 358.099C659.707 348.73 670.821 339.201 690.234 315.906C710.1 292.368 713.164 273.566 717.281 239.093C712.424 168.977 684.327 123.786 661.023 87.6315L651.287 46.5205Z" fill="black"/>
<path d="M531.199 406.783C554.948 392.912 568.662 385.896 601.521 389.474L639.386 374.327V358.099C594.733 367.826 571.882 366.452 550.673 302.924H531.199C536.814 330.929 535 346.565 522.544 374.327L523.287 377.114L531.199 406.783Z" fill="black"/>
<path d="M164.445 1.08187L199.064 90.8772L229.357 174.181L261.813 165.526L218.538 60.5848L194.737 1.08187H164.445Z" fill="black"/>
<path d="M611.257 0L636.14 56.2573L651.287 46.5205L636.14 0H611.257Z" fill="black"/>
<path d="M229.357 174.181L199.064 90.8772L164.445 1.08187H194.737L218.538 60.5848L261.813 165.526M229.357 174.181L261.813 165.526M229.357 174.181C226.251 188.328 225.944 196.946 229.357 214.21C228.592 214.94 227.84 215.656 227.099 216.361C208.305 234.256 197.096 244.929 177.427 283.45C164.038 307.965 156.413 313.272 142.807 322.398H133.07L49.5 327.5C47.2235 363.414 62.3602 379.882 89.7955 419.766C124.61 449.683 144.216 462.645 174.181 478.544C176.632 479.844 179.152 481.164 181.755 482.514C265.772 491.806 312.956 496.915 415.439 482.514C454.611 470.38 476.038 465.125 531.199 406.783M261.813 165.526C349.445 157.953 504.152 214.21 531.199 302.924M636.14 56.2573L611.257 0H636.14L651.287 46.5205M636.14 56.2573L651.287 46.5205M636.14 56.2573V110.351C631.337 187.199 591.588 242.724 567.731 276.049C559.346 287.763 552.924 296.734 550.673 302.924M651.287 46.5205L661.023 87.6315C684.327 123.786 712.424 168.977 717.281 239.093C713.164 273.566 710.1 292.368 690.234 315.906C670.821 339.201 659.707 348.73 639.386 358.099M531.199 406.783C554.948 392.912 568.662 385.896 601.521 389.474L639.386 374.327V358.099M531.199 406.783L523.287 377.114L522.544 374.327C535 346.565 536.814 330.929 531.199 302.924M639.386 358.099C594.733 367.826 571.882 366.452 550.673 302.924M550.673 302.924H531.199" stroke="#C69090" stroke-width="2.16374" stroke-linecap="round" stroke-linejoin="round"/>
<path d="M193.54 484.023C160.161 421.36 144.084 404.845 147.135 322.257C149.344 315.871 150.449 319.064 153.764 313.743C147.74 415.947 179.653 442.529 199.064 484.023C196.522 484.972 199.339 484.818 193.54 484.023Z" fill="#A08F97"/>
<path d="M0 274.795C12.3349 264.223 23.2347 245.039 32.1152 227.764C34.0031 223.539 35.8897 219.667 37.8655 216.374C36.0582 219.989 34.1391 223.827 32.1152 227.764C24.6989 244.361 17.2626 266.407 4.32748 280.205C1.93633 280.024 1.09357 278.552 0 274.795Z" fill="#8D5151"/>
<path d="M96.4936 482.514C88.7284 463.249 86.8228 453.627 88.5 441.5C164.826 517.559 435.954 503.337 495.704 476.173L538.979 454.386L462.166 512.807L442.473 517.463C383.809 539.194 136 527 96.4936 482.514Z" fill="#E4C658" stroke="black" stroke-width="2.16374" stroke-linecap="round" stroke-linejoin="round"/>
<path d="M614 394.089C623.374 389.406 628.217 418.755 621.573 422.218L611.836 429.791L554.497 474.148L275.374 667.803C264.387 656.315 248.151 655.136 244 640.756L503.649 464.411L614 394.089Z" fill="#E4C658" stroke="black" stroke-width="2.16374" stroke-linecap="round" stroke-linejoin="round"/>
<path d="M718.362 246.666C740.122 202.531 747.523 181.042 783.275 194.284C745.174 197.339 740.676 228.894 718.362 246.666Z" fill="#938181"/>
<path d="M651.286 0.000446051L778.947 0.000122815C829.795 99.5322 867.787 201.404 864.415 233.684C856.842 306.17 857.924 359.181 778.947 456.55C747.573 522.544 737.836 527.953 705.38 582.047C690.902 595.341 686.19 602.031 667.514 606.93L636.14 593.947L604.766 590.702C582.391 588.135 570.443 584.495 550.672 572.31C547.671 564.655 547.656 560.623 550.672 553.918L538.772 538.772C533.089 539.778 515.356 520.216 509.561 507.398C498.228 499.827 494.28 493.098 489.006 479.269C492.326 464.02 497.469 460.91 513.889 467.368C522.396 472.907 527.286 475.81 531.199 489.006C539.662 494.401 543.7 499.942 550.672 510.643C565.802 507.984 573.846 511.914 587.456 527.953C606.226 526.259 613.241 526.068 630.731 533.362C636.984 526.032 644.545 520.095 654.532 519.298C664.281 515.933 668.475 508.596 672.924 482.515C649.64 474.157 637.316 472.51 615.584 470.614C593.927 484.599 580.695 486.004 556.082 482.515C543.432 476.224 540.271 470.582 542.017 456.55C561.793 444.972 572.996 438.713 593.947 429.503C614.759 426.298 626.862 424.221 651.286 418.684C663.908 411.111 690.234 407.068 690.234 404.62C690.234 357.018 723.832 315.906 715.117 233.684C710.047 185.857 666.432 99.5322 666.432 99.5322C650.617 69.3006 630.731 -6.49075 651.286 0.000446051Z" fill="#DBA283"/>
<path d="M167.69 593.947C167.69 593.947 54.0935 614.503 1.08179 572.31V683.743C85.4424 680.087 132.686 678.213 214.21 683.743C238.721 684.073 253.068 684.099 280.204 683.743H413.275C429.591 673.977 432.823 666.19 435.994 651.286C433.833 629.385 431.498 617.758 425.175 598.275L393.801 608.012C382.982 612.349 384.315 621.708 389.473 633.977C381.726 633.642 378.953 634.563 375.409 645.877C367.972 648.693 360.759 650.497 360.263 654.532C348.122 646.452 343.69 639.85 336.462 627.485C364.59 608.012 379.737 613.421 420.848 589.62C433.83 582.104 432.748 555.246 425.175 553.918C390.969 547.922 372.272 552.479 357.017 562.573C340.291 561.229 330.899 563.719 315.906 562.573C200.146 540.936 209.883 589.62 167.69 593.947Z" fill="#DBA283"/>
<path d="M550.672 553.918C547.656 560.623 547.671 564.655 550.672 572.31C570.443 584.495 582.391 588.135 604.766 590.702L636.14 593.947L667.514 606.93C686.19 602.031 690.902 595.341 705.38 582.047C737.836 527.953 747.573 522.544 778.947 456.55C857.924 359.181 856.842 306.17 864.415 233.684C867.787 201.404 829.795 99.5322 778.947 0.000122812L651.286 0.000446041C630.731 -6.49075 650.617 69.3006 666.432 99.5322C666.432 99.5322 710.047 185.857 715.117 233.684C723.832 315.906 690.234 357.018 690.234 404.62C690.234 407.068 663.908 411.111 651.286 418.684C626.862 424.221 614.759 426.298 593.947 429.503C572.996 438.713 561.793 444.972 542.017 456.55C540.271 470.582 543.432 476.224 556.082 482.515C580.695 486.004 593.927 484.599 615.584 470.614C637.316 472.51 649.64 474.157 672.924 482.515C668.475 508.596 664.281 515.933 654.532 519.298C644.545 520.095 636.984 526.032 630.731 533.362C613.241 526.068 606.226 526.259 587.456 527.953C573.846 511.914 565.802 507.984 550.672 510.643C543.7 499.942 539.662 494.401 531.199 489.006C527.286 475.81 522.396 472.907 513.889 467.368C497.469 460.91 492.326 464.02 489.006 479.269C494.28 493.098 498.228 499.827 509.561 507.398C515.356 520.216 533.089 539.778 538.772 538.772L550.672 553.918ZM550.672 553.918C562.283 562.646 570.012 566.388 587.456 569.605M587.456 569.605L624.239 585.292L672.924 597.193C645.516 588.458 590.052 570.712 587.456 569.605ZM1.08179 572.31C54.0935 614.503 167.69 593.947 167.69 593.947C209.883 589.62 200.146 540.936 315.906 562.573C330.899 563.719 340.291 561.229 357.017 562.573C372.272 552.479 390.969 547.922 425.175 553.918C432.748 555.246 433.83 582.104 420.848 589.62C379.737 613.421 364.59 608.012 336.462 627.485C343.69 639.85 348.122 646.452 360.263 654.532C360.759 650.497 367.972 648.693 375.409 645.877C378.953 634.563 381.726 633.642 389.473 633.976C384.315 621.708 382.982 612.349 393.801 608.012L425.175 598.275C431.498 617.758 433.833 629.385 435.994 651.286C432.823 666.19 429.591 673.977 413.275 683.743H280.204C253.068 684.099 238.721 684.072 214.21 683.743C132.686 678.213 85.4424 680.087 1.08179 683.743V572.31Z" stroke="#A78282" stroke-width="2.16374" stroke-linecap="round" stroke-linejoin="round"/>
<path d="M582.047 469.532C584.985 457.065 583.006 452.178 575.555 445.731C563.66 447.33 557.035 450.559 545.263 458.713C545.263 466.286 545.263 471.696 553.918 478.187L582.047 469.532Z" fill="#C67272"/>
<path d="M401.374 556.082C393.801 565.819 404.643 577.86 411.111 585.292C423.113 585.385 427.024 578.486 439.827 572.071C447.895 561.491 446.813 556.179 434.002 551.573L401.374 556.082Z" fill="#C67272"/>
</g>
<defs>
<clipPath id="clip0">
<rect width="907" height="682" fill="white"/>
</clipPath>
</defs>
</svg>
